<svg xmlns="http://www.w3.org/2000/svg" width="500" height="85"><path d="M55.274 22.072s-1.468-2.984-1.968-3.976c-3.336-6.612-3.264-6.964-6.636-7.408-.944-.124-1.432-.244-1.432-.712V7.884l.284-.204c6.092-.008 19.648-.008 19.648-.008l.52.172v2.084c0 .476-.34.72-1.032.72l-1.424.204c-3.6.28-3.012 1.752-.62 6.516l22.708 46.46.776.212 20.16-47.844c.7-1.928.592-3.296-.308-4.1-.904-.784-1.54-1.248-3.876-1.344l-1.892-.096a1.11 1.11 0 0 1-.664-.24c-.208-.148-.316-.344-.316-.58V7.844l.288-.204h22.776l.232.204v1.992c0 .54-.308.812-.916.812-2.984.132-5.196.78-6.628 1.936-1.436 1.164-2.556 2.768-3.36 4.852 0 0-18.54 42.436-24.884 56.54-2.428 4.624-4.816 4.2-6.916-.132-4.436-9.136-16.928-36.852-16.928-36.852l-7.592-14.92z"/><path d="M91.658 7.648s-12.812-.04-18.516 0l-.284.204v1.984c0 .244.104.436.312.584.212.156.428.236.66.236l.916.1c2.332.096 3.404.708 3.724 1.092.556.68.832 1.416-.516 4.356l-23.92 47.708-.628-.164S36.274 27.624 31.314 15.54c-.516-1.252-.748-2.18-.748-2.752 0-1.228 1.108-1.892 3.324-1.984l2.584-.108c.684 0 1.032-.264 1.032-.812V7.9l-.232-.204s-20.52-.024-24.76 0l-.232.204v2.084c0 .376.476.608 1.432.712 2.604.14 4.316.556 5.14 1.248.82.7 1.688 2.468 2.84 5.224 6.228 14.96 19.46 41.656 25.904 56.86 1.856 4.152 4.188 4.796 7.02-.128 4.904-9.096 18.2-36.872 18.2-36.872L83.29 17.444c1.22-2.068 2.396-3.912 2.992-4.772 1.092-1.572 1.704-1.868 4.688-2.008.608 0 .916-.272.916-.82V7.86l-.228-.212zm38.956 61.932c0 2.288 1.04 3.64 4.368 3.952l2.184.212c.312 0 .624.204.624.62v2.184l-.104.212s-7.904-.212-11.128-.212c-2.912 0-11.024.212-11.024.212l-.208-.212v-2.184c0-.416.312-.62.728-.62l2.08-.212c3.432-.312 4.472-1.976 4.472-3.952V34.948c0-2.284-1.252-2.916-4.472-3.22l-2.08-.216c-.416 0-.728-.096-.728-.416V28.7l.104-.208s8.216.208 11.44.208c2.808 0 10.816-.208 10.816-.208l.104.208v2.288c0 .312-.208.52-.624.52l-2.184.212c-3.224.308-4.368 1.144-4.368 3.228V69.58zm30.692 0c0 2.288 1.352 3.432 4.368 3.952l1.144.212c.312.1.624.204.624.62v2.184l-.104.212s-6.552-.212-9.672-.212c-2.912 0-11.44.212-11.44.212l-.208-.212v-2.184c0-.416.312-.62.728-.62l2.08-.212c3.12-.312 4.472-1.976 4.472-3.952V34.948c0-2.284-1.144-2.916-4.472-3.22l-2.08-.216c-.416 0-.728-.096-.728-.416V28.7l.104-.208s8.528.208 11.752.208c2.916 0 9.464-.208 9.464-.208l.104.208v2.288c0 .312-.208.416-.624.52l-1.144.212c-3.224.62-4.368 1.144-4.368 3.228v15.704c3.432 0 5.408-1.764 9.984-6.656 4.16-4.58 7.384-8.42 7.384-10.4 0-.836-.936-1.768-3.016-2.084-.416-.1-.624-.208-.624-.52v-2.396l.104-.1s8.424.208 11.44.208c2.704 0 7.28-.208 7.28-.208l.312.1v2.396c0 .312-.312.52-.832.52-4.056.312-6.864.52-10.608 4.784l-8.944 10.292c-1.768 1.876-2.392 3.016-2.392 3.852 0 .624.416 1.14.936 1.764l15.704 18.928c1.248 1.452 3.744 2.08 5.824 2.492l.52.1c.312.104.728.312.728.624v2.184l-.312.104s-5.512-.104-8.424-.104c-2.6 0-6.344.104-6.344.104l-.104-.104v-1.248c0-1.356-.104-2.492-1.56-4.156l-11.544-14.356c-1.56-2.084-3.224-2.596-5.512-2.596V69.58zm56.068 0c0 2.288 1.04 3.64 4.368 3.952l2.184.212c.312 0 .624.204.624.62v2.184l-.104.212s-7.904-.212-11.128-.212c-2.912 0-11.024.212-11.024.212l-.208-.212v-2.184c0-.416.312-.62.728-.62l2.08-.212c3.432-.312 4.472-1.976 4.472-3.952V34.948c0-2.284-1.248-2.916-4.472-3.22l-2.08-.216c-.416 0-.728-.096-.728-.416V28.7l.104-.208s8.216.208 11.44.208c2.808 0 10.816-.208 10.816-.208l.104.208v2.288c0 .312-.208.52-.624.52l-2.184.212c-3.224.308-4.368 1.144-4.368 3.228V69.58zm22.472-34.428c0-3.224-1.352-3.328-6.24-3.64-.624 0-.728-.308-.728-.52V28.6l.208-.104c1.56 0 7.696.208 10.712.208 2.912 0 7.072-.208 10.92-.208 14.76 0 17.464 7.276 17.464 12.692 0 6.244-3.016 16.016-17.776 16.016-2.6 0-4.68-.212-6.556-1.04v13.928c0 2.288 1.248 2.812 4.58 3.328l2.084.312c.416.104.728.212.728.624v2.184l-.1.208s-8.32-.208-11.544-.208c-2.912 0-10.712.208-10.712.208l-.104-.208v-2.184c0-.416.208-.52.624-.624l2.184-.312c3.224-.416 4.264-1.352 4.264-3.328l-.008-34.94zm8.008 18.1c2.08.836 4.68.936 6.76.936 6.244 0 9.248-3.752 9.248-11.752 0-8.944-4.056-10.92-9.768-10.92-4.996 0-6.244.936-6.244 3.64l.004 18.096zm42.24 23.296c-3.12 0-10.292.212-10.292.212l-.108-.212V74.26c0-.204.108-.516.624-.516l2.396-.212c3.228-.312 4.164-2.392 4.164-4.468v-34.32c0-2.4-1.252-2.812-4.164-3.016l-2.396-.216c-.624-.096-.624-.308-.624-.416V28.7l.108-.208s8.108.208 11.228.208h15.288c3.12 0 10.508-.208 10.508-.208l.212.208c.1 4.472.828 8.536 1.56 12.484l-2.596.416c-1.14-3.852-3.116-9.36-9.772-9.36h-8.32c-1.976 0-3.016.728-3.016 2.492v15.084h7.796c2.916 0 3.64-1.248 4.06-3.328l.62-2.184c0-.312.212-.524.624-.524h1.764c.212 0 .212.108.212.312-.212 2.288-.624 5.204-.624 7.7 0 2.596.416 4.784.624 7.176l-.212.212h-1.764c-.516 0-.732-.212-.732-.524l-.52-2.284c-.416-2.084-1.352-3.228-4.064-3.228h-7.792V69.06c0 1.972 1.136 3.948 3.016 3.948h9.88c5.304 0 8.22-3.328 9.464-8.74l2.596.312-2.084 11.956-.208.208s-6.136-.208-9.256-.208l-18.2.012zm39.112-2.804l2.392-.212c3.124-.312 4.164-1.248 4.164-4.468v-34.32c0-2.712-.736-2.712-4.164-3.016l-2.28-.216c-.416 0-.736-.208-.736-.52v-2.288l.1-.208s9.156.208 11.032.208c1.968 0 11.024-.208 13.728-.208 17.368 0 25.9 10.816 25.9 24.648 0 18.204-12.9 23.604-24.44 23.604-8.32 0-11.956-.208-15.18-.208-3.124 0-11.028.208-11.028.208l-.104-.208v-2.184a.587.587 0 0 1 .616-.612zm23.196 0c11.436 0 17.892-4.26 17.892-18.828 0-10.812-2.396-23.404-19.868-23.404-4.056 0-6.656.624-6.656 3.232v34.32c0 2.904.724 4.68 8.632 4.68zm51.492-4.164c0 2.288 1.04 3.64 4.368 3.952l2.184.212c.312 0 .624.204.624.62v2.184l-.104.212s-7.904-.212-11.124-.212c-2.916 0-11.024.212-11.024.212l-.212-.212v-2.184c0-.416.312-.62.728-.62l2.084-.212c3.428-.312 4.472-1.976 4.472-3.952V34.948c0-2.284-1.252-2.916-4.472-3.22l-2.084-.216c-.416 0-.728-.096-.728-.416V28.7l.104-.208s8.216.208 11.432.208c2.808 0 10.82-.208 10.82-.208l.1.208v2.288c0 .312-.212.52-.624.52l-2.184.212c-3.224.308-4.368 1.144-4.368 3.228l.008 34.632zm32.04 3.952l3.016.212c.416 0 .832.312.832.828v1.976l-.208.212s-11.336-.212-13.832-.212c-2.708 0-9.364.212-9.364.212l-.212-.212v-1.976c0-.516.312-.828.836-.828 4.58-.312 7.172-1.148 10.084-7.804l23.084-54.084c1.14-2.704 1.976-3.748 3.54-3.748 1.452 0 1.976 1.044 2.804 3.124l21.32 56.368c1.46 4.06 3.54 5.616 7.7 6.032l1.144.1c.52 0 1.04.312 1.04.836v1.972l-.312.208s-8.008-.208-12.064-.208c-3.64 0-13.836.208-13.836.208l-.1-.208v-1.972c0-.524.208-.836.736-.836l2.912-.208c3.948-.308 5.412-1.564 4.368-4.472l-6.344-17.58h-21.632c-2.496 0-3.12.416-3.636 1.764l-6.036 15.084c-1.04 2.608.312 4.9 4.16 5.212zm25.48-26.424l-10.088-27.764h-.208l-10.4 26.416c-.416 1.044.308 1.352 2.596 1.352h18.1z"/></svg>